<?xml version="1.0" encoding="UTF-8"?><svg id="Layer_1" xmlns="http://www.w3.org/2000/svg" xmlns:xlink="http://www.w3.org/1999/xlink" viewBox="0 0 669.8 151.42"><defs><style>.cls-1{fill:none;}.cls-2{fill:#1868db;}.cls-3{clip-path:url(#clippath);}</style><clipPath id="clippath"><rect class="cls-1" width="669.8" height="151.42"/></clipPath></defs><g class="cls-3"><path d="M192.48,103.51h10.68v47.05h-10.68v-47.05ZM150.77,103.5v47.05h30.99v-8.51h-20.33v-38.53h-10.67,0ZM294.79,128.83l-22.79-25.86h-1.43v47.61h10.29v-17.32c0-5.32-.34-7.97-.34-7.97,0,0,1.81,2.77,3.59,4.96l9.92,12.21h1.5l9.92-12.21c1.78-2.19,3.59-4.96,3.59-4.96,0,0-.34,2.66-.34,7.97v17.32h10.29v-47.61h-1.43l-22.79,25.86ZM354.49,122.34l-2.43-1.04c-3.16-1.34-5.96-2.84-5.96-5.76,0-2.36,1.34-3.89,4.18-3.89s5.3,1.79,6.44,4.1l7.99-4.77c-3.37-5.87-8.81-8.21-14.68-8.21-8.66,0-14.07,5.69-14.22,12.96-.17,8.09,5.59,11.74,12.59,14.71l2.43,1.04c4.43,1.94,6.52,3.41,6.44,6.35-.08,2.77-1.93,4.78-5.95,4.78-4.78,0-7.6-2.63-9.29-6.23l-8.45,4.84c2.29,5.3,8.62,10.18,17.67,10.18s16.35-4.74,16.66-13.47c.27-7.52-4.77-12.18-13.43-15.6M78.21,150.56h10.67v-47.05h-10.67v47.05ZM119.38,103.5h-10.67v47.05h30.99v-8.51h-20.33v-38.54h0ZM258.84,150.49h-10.26l-3.06-7.53h-16.9l-3.06,7.53h-10.26l21-47.46h1.54l21,47.46h0ZM242.39,134.77l-4.05-10.33c-.77-1.94-1.27-3.6-1.27-3.6,0,0-.5,1.66-1.27,3.6l-4.05,10.33h10.63ZM540.13,150.56h10.67v-47.05h-10.67v47.05ZM519.1,134.81l-.28.42c-3.01,4.6-6.44,6.55-11.45,6.55-7.81,0-13.47-6.18-13.47-14.69s5.54-14.56,13.47-14.56c4.64,0,8.47,2.06,10.77,5.8l.27.44,8.06-5.72-.25-.39c-4.17-6.49-10.33-9.64-18.84-9.64-13.8,0-24.21,10.35-24.21,24.07s10.4,24.14,24.21,24.14c8.5,0,15.3-3.59,19.66-10.39l.26-.39-8.19-5.64ZM669.76,125.45l-.02-.46h-22.5v9.25h11.37c-1.2,3.88-5.3,7.62-12.1,7.62-7.92,0-13.67-6.21-13.67-14.75s5.59-14.56,13.6-14.56c4.76,0,8.3,1.98,10.84,6.07l.28.44,8.25-5.86-.25-.39c-4.25-6.58-10.51-9.77-19.12-9.77-13.88,0-24.34,10.35-24.34,24.07s10.29,24.14,24.48,24.14c7.24,0,13.19-2.23,17.22-6.46,4.31-4.52,6.37-11.2,5.97-19.33M598.73,103.54v19.8c0,2.07-.1,4.01.07,5.81-1.13-1.42-2.61-2.69-4.06-4.07l-23.24-21.82-.14-.13h-1.63v47.47h9.85v-19.8c0-2.13.11-4.09-.09-5.88,1.13,1.41,2.58,2.73,4.07,4.13l23.24,21.82.14.13h1.63v-47.46h-9.85,0ZM426.03,150.57h-11.99l-9.35-15.99h-5.26v15.99h-10.46v-47.05h17.56c11.04,0,17.64,5.86,17.64,15.67,0,6.43-3.12,11.29-8.79,13.72l10.66,17.67h0ZM413.42,119.18c0-4.34-2.28-6.36-7.17-6.36h-6.83v12.78h6.83c4.89,0,7.17-2.04,7.17-6.43M477,150.49h-10.26l-3.06-7.53h-16.9l-3.06,7.53h-10.26l21-47.46h1.54l21,47.46h0ZM460.54,134.77l-4.05-10.33c-.76-1.94-1.27-3.6-1.27-3.6,0,0-.5,1.66-1.27,3.6l-4.05,10.33h10.63ZM11.09,103.5l7.52,20.23-6.21,13.16L0,103.5h11.09ZM33.24,103.5l17.48,37.13-3.68,9.92h-1.73l-13.04-27.66-13.04,27.66h-1.73l-3.69-9.92,17.48-37.13h1.95,0ZM64.52,103.5l-12.41,33.39-6.21-13.16,7.51-20.23h11.1Z"/><path class="cls-2" d="M25.91,40.47c-2.88-4.32-3.76-4.61-4.47-4.61s-1.15.3-2.44,2.88L.72,75.3c-.57,1.15-.72,1.59-.72,2.17,0,1.15,1.02,2.3,3.17,2.3h25.77c1.72,0,3.02-1.45,3.76-4.17.87-3.46,1.15-6.47,1.15-10.09,0-10.09-4.47-19.88-7.92-25.06l-.02.02h0ZM79.06,75.02L42.48,1.87c-.72-1.59-1.43-1.87-2.31-1.87-.71,0-1.59.3-2.44,1.73-5.18,8.2-7.49,17.71-7.49,27.64,0,13.82,7.05,26.79,17.41,47.66,1.15,2.3,2.02,2.74,4.03,2.74h25.34c1.87,0,2.88-.71,2.88-2.17,0-.72-.13-1.15-.87-2.61l.02.02ZM411.04,57.79c0-12.23-6.36-17.85-24.69-21.77-10.02-2.21-12.46-4.4-12.46-7.58,0-3.91,3.66-5.62,10.28-5.62,8.07,0,15.89,2.44,23.47,5.88v-15.89c-5.39-2.69-13.45-4.65-22.99-4.65-18.1,0-27.39,7.83-27.39,20.55M357.24,28.2c0,10.27,4.65,18.34,23.47,22,11.01,2.44,13.45,4.15,13.45,7.83s-2.44,5.88-10.27,5.88c-9.05,0-19.81-3.17-26.91-7.33v16.64c5.62,2.69,12.97,5.88,26.91,5.88,19.56,0,27.13-8.8,27.13-21.51M631.14,8.64l16.86,31.79,5.62,13.19V8.64h14.67v69.7h-18.59l-21.03-39.14-6.1-13.93v53.07h-14.93V8.64h23.5ZM513.24,78.34h-16.15V8.64h16.15v69.7ZM478.53,57.56c0,12.97-7.81,21.77-27.13,21.77-13.93,0-21.28-3.17-26.9-5.88v-16.64c7.09,4.15,17.85,7.33,26.9,7.33,7.84,0,10.27-2.19,10.27-5.88s-2.44-5.39-13.45-7.83c-18.82-3.66-23.47-11.73-23.47-22,0-12.71,9.29-20.55,27.39-20.55,9.53,0,17.62,1.95,22.99,4.65v15.89c-7.58-3.43-15.41-5.88-23.47-5.88-6.61,0-10.27,1.71-10.27,5.62,0,3.18,2.44,5.37,12.46,7.58,18.34,3.91,24.69,9.54,24.69,21.77v.02h0ZM247.68,8.64v54.54h22.25l-5.14,15.15h-33.26V8.64h16.15ZM165.75,8.62h53.55v14.93h-19.32v54.8h-16.38V23.57h-17.86v-14.95ZM131.28,53.87c-3.17,0-6.1-.49-8.8-1.22l8.8-30.32,8.8,30.32c-2.69.73-5.62,1.22-8.8,1.22ZM142.04,8.64h-21.28l-24.21,69.7h18.59l3.43-11.75c4.15,1.22,8.57,1.95,12.97,1.95s8.8-.73,12.97-1.95l3.43,11.75h18.59c-.25,0-24.46-69.7-24.46-69.7h-.03ZM311.5,53.87c-3.17,0-6.1-.49-8.8-1.22l8.8-30.32,8.8,30.32c-2.69.73-5.62,1.22-8.8,1.22ZM322.26,8.64h-21.28l-24.46,69.7h18.59l3.43-11.75c4.15,1.22,8.57,1.95,12.97,1.95s8.8-.73,12.97-1.95l3.43,11.75h18.59l-24.21-69.7h-.04ZM561.18,53.87c-3.17,0-6.1-.49-8.8-1.22l8.8-30.32,8.8,30.32c-2.69.73-5.88,1.22-8.8,1.22ZM571.7,8.64h-21.28l-24.21,69.7h18.59l3.43-11.75c4.15,1.22,8.57,1.95,12.97,1.95s8.8-.73,12.97-1.95l3.43,11.75h18.59l-24.46-69.7h-.03Z"/></g></svg>